<svg id="Layer_1" data-name="Layer 1" xmlns="http://www.w3.org/2000/svg" viewBox="0 0 128 128"><defs><style>.cls-1{fill:#162028;}.cls-2{fill:#b3dce0;}</style></defs><rect class="cls-1" width="128" height="128"/><path class="cls-2" d="M32,77.17v-26H42a9.31,9.31,0,0,1,4.26.89A6.7,6.7,0,0,1,49,54.47a6,6,0,0,1,.95,3.25,6.11,6.11,0,0,1-.7,3.12,5.71,5.71,0,0,1-1.58,1.81,7.69,7.69,0,0,1-1.41.82v.21a8.62,8.62,0,0,1,2,.93,5.75,5.75,0,0,1,2.72,5.25,7.48,7.48,0,0,1-.87,3.48,6.76,6.76,0,0,1-2.78,2.75,10.11,10.11,0,0,1-5,1.08Zm9.87-23H35.44v8.29h6.43a5.4,5.4,0,0,0,2.72-.6A3.71,3.71,0,0,0,46.1,60.3a4.57,4.57,0,0,0,.47-2,4.49,4.49,0,0,0-.47-2,3.72,3.72,0,0,0-1.51-1.54A5.4,5.4,0,0,0,41.87,54.17Zm.28,11.06H35.44v9h6.71a6.39,6.39,0,0,0,3.09-.65,4.11,4.11,0,0,0,1.7-1.68,4.61,4.61,0,0,0,.54-2.16,4.47,4.47,0,0,0-.54-2.14,4.15,4.15,0,0,0-1.7-1.67A6.39,6.39,0,0,0,42.15,65.23Z"/><path class="cls-2" d="M60.58,58.21a6.84,6.84,0,0,1,3,.56,6.43,6.43,0,0,1,1.93,1.32,7.27,7.27,0,0,1,1.12,1.42h.21V58.56h3.34V77.17H66.79v-3h-.21a8.34,8.34,0,0,1-1.12,1.44A6.24,6.24,0,0,1,63.53,77a7.16,7.16,0,0,1-3,.55,7.63,7.63,0,0,1-6.32-3,9.82,9.82,0,0,1-1.58-3.11,11.89,11.89,0,0,1,0-7,9.93,9.93,0,0,1,1.58-3.11,7.59,7.59,0,0,1,6.32-3Zm.56,2.84a4.89,4.89,0,0,0-3.13,1,6.06,6.06,0,0,0-1.87,2.55,8.85,8.85,0,0,0,0,6.51A6,6,0,0,0,58,73.67a4.89,4.89,0,0,0,3.13,1,4.81,4.81,0,0,0,3.11-1,6.09,6.09,0,0,0,1.86-2.56,9,9,0,0,0,0-6.51,6.12,6.12,0,0,0-1.86-2.55A4.81,4.81,0,0,0,61.14,61.05Z"/><path class="cls-2" d="M72.58,77.17l0-26.69h3.3V77.17Z"/><path class="cls-2" d="M86.45,58.21a6.84,6.84,0,0,1,3,.56,6.31,6.31,0,0,1,1.93,1.32,6.91,6.91,0,0,1,1.12,1.42h.21V58.56H96V77.17H92.66v-3h-.21a7.87,7.87,0,0,1-1.12,1.44A6.12,6.12,0,0,1,89.4,77a7.16,7.16,0,0,1-3,.55,7.63,7.63,0,0,1-6.32-3,9.82,9.82,0,0,1-1.58-3.11,12.11,12.11,0,0,1,0-7,9.93,9.93,0,0,1,1.58-3.11,7.59,7.59,0,0,1,6.32-3ZM87,61.05a4.84,4.84,0,0,0-3.12,1A6.08,6.08,0,0,0,82,64.6a9,9,0,0,0,0,6.51,6.05,6.05,0,0,0,1.88,2.56,5.35,5.35,0,0,0,6.23,0A6.09,6.09,0,0,0,92,71.11a9,9,0,0,0,0-6.51,6.12,6.12,0,0,0-1.86-2.55A4.8,4.8,0,0,0,87,61.05Z"/></svg>