<svg id="Layer_1" data-name="Layer 1" xmlns="http://www.w3.org/2000/svg" viewBox="0 0 128 96.86"><defs><style>.cls-1{fill:#b3dce0;}</style></defs><path class="cls-1" d="M47.05,93.79a22,22,0,0,0,9-4,22.22,22.22,0,0,0,5.63-6.25A23.37,23.37,0,0,0,65.2,70.87a21.06,21.06,0,0,0-3.09-11.65,17.71,17.71,0,0,0-9.19-7A19.1,19.1,0,0,0,59,47.68c2.45-2.94,3.68-6.85,3.68-11.7A20.25,20.25,0,0,0,59,23.84Q53,15.61,38.42,15.38H0V94.87H35.82A54.88,54.88,0,0,0,47.05,93.79ZM15.86,29.18H33.15a29.75,29.75,0,0,1,9.39,1.25c2.85,1.18,4.28,3.63,4.28,7.33q0,5-3.24,7a16,16,0,0,1-8.4,2H15.86Zm0,51.88V59.87H35.42a20.05,20.05,0,0,1,7.95,1.35q5.06,2.31,5.06,8.52,0,7.32-5.22,9.92a18.7,18.7,0,0,1-8.05,1.4Z"/><path class="cls-1" d="M78.66,89.63a32,32,0,0,0,20.71,7.23q14.22,0,22.11-8.57,5.08-5.4,5.7-10.62H111.49a11.94,11.94,0,0,1-11.7,6.74,15.56,15.56,0,0,1-8.47-2.22q-5.79-3.56-6.15-12.4H128a75.25,75.25,0,0,0-.5-11.67A28.91,28.91,0,0,0,122.79,46a23.74,23.74,0,0,0-10.16-8.69,33.34,33.34,0,0,0-13.82-2.75q-12.91,0-21,8.15T69.7,66.1Q69.7,82.39,78.66,89.63Zm11-39.08c2.18-2.23,5.23-3.35,9.18-3.35a13.55,13.55,0,0,1,9.12,3.16q3.68,3.18,4.09,9.29H85.55A16,16,0,0,1,89.64,50.55Z"/><rect class="cls-1" x="80.54" y="19.95" width="34.54" height="8.02"/></svg>