<svg id="Layer_1" data-name="Layer 1" xmlns="http://www.w3.org/2000/svg" viewBox="0 0 128 94.9"><defs><style>.cls-1{fill:#b3dce0;}</style></defs><path class="cls-1" d="M64,8.55c12.67,0,14.17,0,19.17.28A26.34,26.34,0,0,1,92,10.46,14.71,14.71,0,0,1,97.44,14,14.67,14.67,0,0,1,101,19.47a26.4,26.4,0,0,1,1.64,8.81c.22,5,.27,6.5.27,19.17s-.05,14.17-.27,19.18A26.46,26.46,0,0,1,101,75.44a15.74,15.74,0,0,1-9,9,26.27,26.27,0,0,1-8.82,1.64c-5,.22-6.5.27-19.17.27s-14.17,0-19.17-.27A26.27,26.27,0,0,1,36,84.44a15.74,15.74,0,0,1-9-9,26.46,26.46,0,0,1-1.64-8.81c-.22-5-.27-6.51-.27-19.18s0-14.17.27-19.17A26.4,26.4,0,0,1,27,19.47,14.67,14.67,0,0,1,30.56,14,14.71,14.71,0,0,1,36,10.46a26.34,26.34,0,0,1,8.82-1.63c5-.23,6.5-.28,19.17-.28M64,0C51.11,0,49.5.06,44.44.29a34.88,34.88,0,0,0-11.52,2.2A24.21,24.21,0,0,0,19,16.37a34.91,34.91,0,0,0-2.21,11.52c-.23,5.06-.28,6.67-.28,19.56S16.6,62,16.83,67A34.79,34.79,0,0,0,19,78.53,24.21,24.21,0,0,0,32.92,92.41a34.6,34.6,0,0,0,11.52,2.21c5.06.23,6.67.28,19.56.28s14.5-.05,19.56-.28a34.65,34.65,0,0,0,11.52-2.21A24.21,24.21,0,0,0,109,78.53,34.79,34.79,0,0,0,111.17,67c.23-5.06.28-6.68.28-19.57s0-14.5-.28-19.56A34.91,34.91,0,0,0,109,16.37,24.21,24.21,0,0,0,95.08,2.49,34.93,34.93,0,0,0,83.56.29C78.5.06,76.89,0,64,0"/><path class="cls-1" d="M64,23.09A24.37,24.37,0,1,0,88.37,47.45,24.36,24.36,0,0,0,64,23.09m0,40.18A15.82,15.82,0,1,1,79.82,47.45,15.82,15.82,0,0,1,64,63.27"/><path class="cls-1" d="M95,22.12a5.69,5.69,0,1,1-5.69-5.69A5.7,5.7,0,0,1,95,22.12"/></svg>