<svg id="Layer_1" data-name="Layer 1" xmlns="http://www.w3.org/2000/svg" viewBox="0 0 128 94.9"><defs><style>.cls-1{fill:#b3dce0;}</style></defs><path class="cls-1" d="M103.71,85.22,72.63,40.08,69.12,35,46.89,2.68,45.05,0H17.73L24.4,9.68,54,52.62l3.52,5.11,23.74,34.5,1.85,2.67h27.31ZM86.3,88.72,61.63,52.88l-3.51-5.11L29.49,6.18H41.8L65,39.82l3.51,5.1,30.15,43.8Z"/><polygon class="cls-1" points="58.12 47.77 61.63 52.88 57.47 57.73 25.51 94.9 17.63 94.9 53.95 52.63 58.12 47.77"/><polygon class="cls-1" points="107.08 0 72.64 40.08 68.47 44.92 64.96 39.82 69.12 34.97 92.46 7.81 99.2 0 107.08 0"/></svg>