<?xml version="1.0" encoding="UTF-8"?>
<svg id="Layer_1" data-name="Layer 1" xmlns="http://www.w3.org/2000/svg" viewBox="0 0 34.68 22.08">
  <defs>
    <style>
      .cls-1 {
        fill: #1c778c;
      }
    </style>
  </defs>
  <path class="cls-1" d="M12.75,21.25c.93-.19,1.75-.55,2.43-1.08,.61-.46,1.12-1.02,1.53-1.69,.64-1.01,.96-2.16,.96-3.44s-.28-2.29-.84-3.16c-.56-.87-1.39-1.5-2.49-1.9,.72-.37,1.27-.78,1.64-1.23,.66-.8,1-1.86,1-3.17s-.33-2.37-.99-3.29C14.9,.8,13.04,.04,10.41,0H0V21.54H9.71c1.09,0,2.11-.1,3.04-.29ZM4.3,3.74h4.69c1.03,0,1.88,.11,2.55,.34,.77,.32,1.16,.98,1.16,1.99,0,.91-.29,1.54-.88,1.89-.58,.36-1.34,.53-2.28,.53H4.3V3.74Zm0,14.06v-5.74h5.3c.93,0,1.64,.13,2.15,.36,.91,.42,1.37,1.19,1.37,2.31,0,1.32-.47,2.22-1.42,2.69-.52,.25-1.25,.38-2.18,.38H4.3Z"/>
  <g>
    <path class="cls-1" d="M21.31,20.12c1.62,1.31,3.49,1.96,5.61,1.96,2.57,0,4.57-.77,5.99-2.32,.92-.98,1.43-1.93,1.55-2.88h-4.25c-.25,.47-.53,.83-.86,1.09-.59,.49-1.36,.73-2.31,.73-.9,0-1.66-.2-2.3-.6-1.05-.64-1.6-1.76-1.67-3.36h11.6c.02-1.37-.03-2.43-.14-3.16-.19-1.25-.62-2.35-1.27-3.29-.72-1.07-1.64-1.86-2.75-2.36-1.11-.5-2.36-.75-3.75-.75-2.33,0-4.23,.74-5.69,2.21-1.46,1.47-2.19,3.59-2.19,6.35,0,2.94,.81,5.07,2.43,6.38Zm2.97-10.59c.59-.61,1.42-.91,2.49-.91,.98,0,1.81,.29,2.47,.86,.66,.57,1.03,1.41,1.11,2.52h-7.18c.15-1.04,.52-1.86,1.11-2.47Z"/>
    <rect class="cls-1" x="21.82" y="1.24" width="9.36" height="2.17"/>
  </g>
</svg>