<?xml version="1.0" encoding="UTF-8"?>
<svg id="Layer_1" data-name="Layer 1" xmlns="http://www.w3.org/2000/svg" viewBox="0 0 22.08 22.08">
  <defs>
    <style>
      .cls-1 {
        fill: #1c778c;
      }
    </style>
  </defs>
  <path class="cls-1" d="M11.04,1.99c2.95,0,3.3,.01,4.46,.06,1.08,.05,1.66,.23,2.05,.38,.52,.2,.88,.44,1.27,.83,.39,.39,.63,.75,.83,1.27,.15,.39,.33,.97,.38,2.05,.05,1.16,.06,1.51,.06,4.46s-.01,3.3-.06,4.46c-.05,1.08-.23,1.66-.38,2.05-.2,.52-.44,.88-.83,1.27-.39,.39-.75,.63-1.27,.83-.39,.15-.97,.33-2.05,.38-1.16,.05-1.51,.06-4.46,.06s-3.3-.01-4.46-.06c-1.08-.05-1.66-.23-2.05-.38-.52-.2-.88-.44-1.27-.83-.39-.39-.63-.75-.83-1.27-.15-.39-.33-.97-.38-2.05-.05-1.16-.06-1.51-.06-4.46s.01-3.3,.06-4.46c.05-1.08,.23-1.66,.38-2.05,.2-.52,.44-.88,.83-1.27,.39-.39,.75-.63,1.27-.83,.39-.15,.97-.33,2.05-.38,1.16-.05,1.51-.06,4.46-.06m0-1.99c-3,0-3.37,.01-4.55,.07-1.18,.05-1.98,.24-2.68,.51-.73,.28-1.34,.66-1.96,1.27-.61,.61-.99,1.23-1.27,1.96-.27,.7-.46,1.5-.51,2.68-.05,1.18-.07,1.55-.07,4.55s.01,3.37,.07,4.55c.05,1.18,.24,1.98,.51,2.68,.28,.73,.66,1.34,1.27,1.96,.61,.61,1.23,.99,1.96,1.27,.7,.27,1.5,.46,2.68,.51,1.18,.05,1.55,.07,4.55,.07s3.37-.01,4.55-.07c1.17-.05,1.98-.24,2.68-.51,.73-.28,1.34-.66,1.96-1.27,.61-.61,.99-1.23,1.27-1.96,.27-.7,.46-1.5,.51-2.68,.05-1.18,.07-1.55,.07-4.55s-.01-3.37-.07-4.55c-.05-1.18-.24-1.98-.51-2.68-.28-.73-.66-1.34-1.27-1.96-.61-.61-1.23-.99-1.96-1.27-.7-.27-1.5-.46-2.68-.51-1.18-.05-1.55-.07-4.55-.07"/>
  <path class="cls-1" d="M11.04,5.37c-3.13,0-5.67,2.54-5.67,5.67s2.54,5.67,5.67,5.67,5.67-2.54,5.67-5.67-2.54-5.67-5.67-5.67m0,9.35c-2.03,0-3.68-1.65-3.68-3.68s1.65-3.68,3.68-3.68,3.68,1.65,3.68,3.68-1.65,3.68-3.68,3.68"/>
  <path class="cls-1" d="M18.26,5.15c0,.73-.59,1.32-1.32,1.32s-1.32-.59-1.32-1.32,.59-1.32,1.32-1.32,1.32,.59,1.32,1.32"/>
</svg>