<?xml version="1.0" encoding="UTF-8"?>
<svg id="Layer_1" data-name="Layer 1" xmlns="http://www.w3.org/2000/svg" viewBox="0 0 21.58 22.08">
  <defs>
    <style>
      .cls-1 {
        fill: #1c778c;
      }
    </style>
  </defs>
  <path class="cls-1" d="M20.03,19.83l-7.23-10.5-.82-1.19L6.81,.62l-.43-.62H.02L1.57,2.25l6.88,9.99,.82,1.19,5.52,8.03,.43,.62h6.35l-1.55-2.25Zm-4.05,.81l-5.74-8.34-.82-1.19L2.76,1.44h2.87l5.39,7.83,.82,1.19,7.01,10.19h-2.87Z"/>
  <polygon class="cls-1" points="9.42 11.11 10.24 12.3 9.27 13.43 1.83 22.08 0 22.08 8.45 12.24 9.42 11.11"/>
  <polygon class="cls-1" points="20.81 0 12.8 9.32 11.83 10.45 11.01 9.26 11.98 8.14 17.41 1.82 18.98 0 20.81 0"/>
</svg>